<?xml version="1.0" standalone="no"?>
<!DOCTYPE svg PUBLIC "-//W3C//DTD SVG 20010904//EN"
 "http://www.w3.org/TR/2001/REC-SVG-20010904/DTD/svg10.dtd">
<svg version="1.0" xmlns="http://www.w3.org/2000/svg"
 width="510.000000pt" height="403.000000pt" viewBox="0 0 510.000000 403.000000"
 preserveAspectRatio="xMidYMid meet">
<metadata>
Created by potrace 1.16, written by Peter Selinger 2001-2019
</metadata>
<g transform="translate(0.000000,403.000000) scale(0.100000,-0.100000)"
fill="#000000" stroke="none">
<path d="M2270 3998 c-14 -5 -205 -75 -425 -155 -220 -79 -447 -162 -505 -183
-168 -61 -441 -160 -490 -177 -121 -42 -146 -59 -202 -135 -30 -40 -102 -136
-159 -213 -57 -77 -111 -150 -119 -161 -25 -36 -154 -212 -230 -314 -117 -157
-130 -179 -130 -227 0 -57 20 -95 62 -116 25 -13 570 -157 593 -157 3 0 5
-321 5 -712 0 -690 1 -714 20 -745 10 -18 32 -39 47 -46 26 -14 267 -89 992
-309 146 -44 286 -86 311 -93 25 -7 217 -65 428 -129 211 -64 399 -116 418
-116 31 0 199 84 457 229 45 25 492 271 742 409 346 190 382 211 401 240 18
26 19 65 22 745 l3 719 102 47 c56 27 177 85 269 129 184 89 198 102 198 184
0 39 -13 61 -140 243 -77 110 -169 241 -203 290 -300 430 -324 461 -356 474
-14 5 -55 13 -91 16 -36 4 -139 18 -230 31 -91 14 -275 41 -410 60 -295 42
-933 135 -1120 164 -148 22 -222 24 -260 8z m595 -328 c606 -86 967 -139 971
-143 2 -1 -119 -59 -269 -127 -150 -68 -308 -140 -352 -161 -44 -20 -141 -65
-215 -99 l-135 -61 -100 17 c-83 13 -1242 223 -1398 253 -26 5 -50 11 -53 14
-3 2 19 12 48 22 50 16 635 228 868 315 58 21 114 39 125 39 11 1 241 -30 510
-69z m1448 -292 c21 -29 112 -159 203 -288 92 -129 182 -256 201 -283 l35 -47
-139 -66 c-76 -37 -223 -107 -328 -156 -207 -99 -274 -131 -623 -297 -129 -61
-237 -111 -241 -111 -5 0 -46 80 -91 178 -46 97 -125 264 -176 370 l-93 192
47 24 c26 13 92 44 147 69 181 81 859 394 950 438 33 15 62 29 65 29 3 0 22
-24 43 -52z m-3233 -247 c175 -33 575 -107 760 -141 30 -5 89 -16 130 -24 41
-8 211 -38 377 -67 167 -30 303 -57 303 -60 0 -6 -106 -168 -127 -194 -5 -5
-93 -137 -196 -292 -104 -156 -192 -285 -197 -288 -9 -6 -297 66 -1245 311
-503 130 -515 133 -515 140 0 3 20 31 44 62 41 53 281 377 389 526 27 36 54
66 60 66 7 0 104 -18 217 -39z m1670 -1726 c0 -597 -2 -1085 -5 -1085 -6 0
-1206 361 -1275 383 -25 8 -97 31 -160 50 -63 20 -171 53 -240 74 l-125 39 -3
613 c-2 580 -1 612 15 607 10 -3 99 -27 198 -52 99 -26 335 -87 525 -136 190
-49 386 -98 435 -110 143 -33 126 -49 398 360 126 188 230 342 232 342 2 0 4
-488 5 -1085z m335 795 c140 -303 163 -346 191 -365 61 -42 88 -33 489 160
204 98 394 188 423 201 l52 24 -2 -592 -3 -591 -125 -70 c-69 -38 -170 -94
-225 -124 -55 -30 -118 -65 -140 -77 -22 -12 -80 -44 -130 -71 -127 -68 -368
-201 -445 -245 -63 -36 -146 -80 -152 -80 -2 0 -3 443 -3 984 0 690 3 978 10
967 6 -9 33 -63 60 -121z"/>
</g>
</svg>
